<?xml version="1.0" encoding="utf-8"?>
<!-- Generator: Adobe Illustrator 16.0.4, SVG Export Plug-In . SVG Version: 6.00 Build 0)  -->
<!DOCTYPE svg PUBLIC "-//W3C//DTD SVG 1.1//EN" "http://www.w3.org/Graphics/SVG/1.1/DTD/svg11.dtd">
<svg version="1.1" id="Layer_1" xmlns="http://www.w3.org/2000/svg" xmlns:xlink="http://www.w3.org/1999/xlink" x="0px" y="0px"
	 width="340px" height="648px" viewBox="0 0 340 648" enable-background="new 0 0 340 648" xml:space="preserve">
<g>
	<g>
		<defs>
			<path id="SVGID_1_" d="M32.005,8h275.99C321.807,8,333,19.194,333,33.007v583.986C333,630.807,321.806,642,307.995,642H32.005
				C18.193,642,7,630.806,7,616.993V33.007C7,19.193,18.194,8,32.005,8z M32.005,4C15.985,4,3,16.984,3,33.007v583.986
				C3,633.015,15.983,646,32.005,646h275.99C324.016,646,337,633.016,337,616.993V33.007C337,16.985,324.017,4,307.995,4H32.005z
				 M-17-16h374v682H-17V-16z"/>
		</defs>
		<clipPath id="SVGID_2_">
			<use xlink:href="#SVGID_1_"  overflow="visible"/>
		</clipPath>
		<g clip-path="url(#SVGID_2_)">
			<defs>
				<path id="SVGID_3_" d="M32.005,6C17.091,6,5,18.087,5,33.007v583.986C5,631.909,17.087,644,32.005,644h275.99
					C322.909,644,335,631.913,335,616.993V33.007C335,18.091,322.913,6,307.995,6H32.005z"/>
			</defs>
			<clipPath id="SVGID_4_">
				<use xlink:href="#SVGID_3_"  overflow="visible"/>
			</clipPath>
		</g>
	</g>
	<g>
		<defs>
			<path id="SVGID_5_" d="M32.005,8h275.99C321.807,8,333,19.194,333,33.007v583.986C333,630.807,321.806,642,307.995,642H32.005
				C18.193,642,7,630.806,7,616.993V33.007C7,19.193,18.194,8,32.005,8z M32.005,4C15.985,4,3,16.984,3,33.007v583.986
				C3,633.015,15.983,646,32.005,646h275.99C324.016,646,337,633.016,337,616.993V33.007C337,16.985,324.017,4,307.995,4H32.005z
				 M-17-16h374v682H-17V-16z"/>
		</defs>
		<clipPath id="SVGID_6_">
			<use xlink:href="#SVGID_5_"  overflow="visible"/>
		</clipPath>
		<g clip-path="url(#SVGID_6_)">
			<defs>
				<path id="SVGID_7_" d="M32.005,6C17.091,6,5,18.087,5,33.007v583.986C5,631.909,17.087,644,32.005,644h275.99
					C322.909,644,335,631.913,335,616.993V33.007C335,18.091,322.913,6,307.995,6H32.005z"/>
			</defs>
			<clipPath id="SVGID_8_">
				<use xlink:href="#SVGID_7_"  overflow="visible"/>
			</clipPath>
			<path clip-path="url(#SVGID_8_)" fill-rule="evenodd" clip-rule="evenodd" fill="#292729" d="M32.005,6
				C17.091,6,5,18.087,5,33.007v583.986C5,631.909,17.087,644,32.005,644h275.99C322.909,644,335,631.913,335,616.993V33.007
				C335,18.091,322.913,6,307.995,6H32.005z"/>
		</g>
	</g>
	<g>
		<defs>
			<path id="SVGID_9_" d="M32.005,8h275.99C321.807,8,333,19.194,333,33.007v583.986C333,630.807,321.806,642,307.995,642H32.005
				C18.193,642,7,630.806,7,616.993V33.007C7,19.193,18.194,8,32.005,8z M32.005,4C15.985,4,3,16.984,3,33.007v583.986
				C3,633.015,15.983,646,32.005,646h275.99C324.016,646,337,633.016,337,616.993V33.007C337,16.985,324.017,4,307.995,4H32.005z
				 M-17-16h374v682H-17V-16z"/>
		</defs>
		<clipPath id="SVGID_10_">
			<use xlink:href="#SVGID_9_"  overflow="visible"/>
		</clipPath>
		<g clip-path="url(#SVGID_10_)">
			<defs>
				<path id="SVGID_11_" d="M32.005,6C17.091,6,5,18.087,5,33.007v583.986C5,631.909,17.087,644,32.005,644h275.99
					C322.909,644,335,631.913,335,616.993V33.007C335,18.091,322.913,6,307.995,6H32.005z"/>
			</defs>
			<clipPath id="SVGID_12_">
				<use xlink:href="#SVGID_11_"  overflow="visible"/>
			</clipPath>
		</g>
	</g>
</g>
<g>
	<g>
		<defs>
			<path id="SVGID_13_" d="M32.005,6C17.091,6,5,18.087,5,33.007v583.986C5,631.909,17.087,644,32.005,644h275.99
				C322.909,644,335,631.913,335,616.993V33.007C335,18.091,322.913,6,307.995,6H32.005z"/>
		</defs>
		<clipPath id="SVGID_14_">
			<use xlink:href="#SVGID_13_"  overflow="visible"/>
		</clipPath>
	</g>
	<g>
		<defs>
			<path id="SVGID_15_" d="M32.005,6C17.091,6,5,18.087,5,33.007v583.986C5,631.909,17.087,644,32.005,644h275.99
				C322.909,644,335,631.913,335,616.993V33.007C335,18.091,322.913,6,307.995,6H32.005z"/>
		</defs>
		<clipPath id="SVGID_16_">
			<use xlink:href="#SVGID_15_"  overflow="visible"/>
		</clipPath>
		<path clip-path="url(#SVGID_16_)" fill="#4A4A4A" d="M307.995,648H32.005C14.909,648,1,634.091,1,616.993V33.007
			C1,15.91,14.909,2,32.005,2h275.99C325.091,2,339,15.91,339,33.007v583.986C339,634.091,325.091,648,307.995,648z M32.005,10
			C19.32,10,9,20.321,9,33.007v583.986C9,629.679,19.32,640,32.005,640h275.99C320.68,640,331,629.679,331,616.993V33.007
			C331,20.321,320.68,10,307.995,10H32.005z"/>
	</g>
	<g>
		<defs>
			<path id="SVGID_17_" d="M32.005,6C17.091,6,5,18.087,5,33.007v583.986C5,631.909,17.087,644,32.005,644h275.99
				C322.909,644,335,631.913,335,616.993V33.007C335,18.091,322.913,6,307.995,6H32.005z"/>
		</defs>
		<clipPath id="SVGID_18_">
			<use xlink:href="#SVGID_17_"  overflow="visible"/>
		</clipPath>
	</g>
</g>
<g>
	<g>
		<defs>
			<rect id="SVGID_19_" x="19.396" y="49.123" width="301.208" height="514.159"/>
		</defs>
		<clipPath id="SVGID_20_">
			<use xlink:href="#SVGID_19_"  overflow="visible"/>
		</clipPath>
	</g>
	<g>
		<defs>
			<rect id="SVGID_21_" x="19.396" y="49.123" width="301.208" height="514.159"/>
		</defs>
		<clipPath id="SVGID_22_">
			<use xlink:href="#SVGID_21_"  overflow="visible"/>
		</clipPath>
		
			<rect x="14.396" y="44.123" clip-path="url(#SVGID_22_)" fill-rule="evenodd" clip-rule="evenodd" fill="#FFFFFF" width="311.208" height="524.159"/>
	</g>
	<g>
		<defs>
			<rect id="SVGID_23_" x="19.396" y="49.123" width="301.208" height="514.159"/>
		</defs>
		<clipPath id="SVGID_24_">
			<use xlink:href="#SVGID_23_"  overflow="visible"/>
		</clipPath>
	</g>
</g>
<g>
	<g>
		<defs>
			<path id="SVGID_25_" d="M137.887,25.903c-1.835,0-3.323,1.489-3.323,3.317c0,1.832,1.48,3.317,3.323,3.317h64.226
				c1.835,0,3.323-1.489,3.323-3.317c0-1.832-1.48-3.317-3.323-3.317H137.887z"/>
		</defs>
		<clipPath id="SVGID_26_">
			<use xlink:href="#SVGID_25_"  overflow="visible"/>
		</clipPath>
	</g>
	<g>
		<defs>
			<path id="SVGID_27_" d="M137.887,25.903c-1.835,0-3.323,1.489-3.323,3.317c0,1.832,1.48,3.317,3.323,3.317h64.226
				c1.835,0,3.323-1.489,3.323-3.317c0-1.832-1.48-3.317-3.323-3.317H137.887z"/>
		</defs>
		<clipPath id="SVGID_28_">
			<use xlink:href="#SVGID_27_"  overflow="visible"/>
		</clipPath>
		
			<rect x="129.564" y="20.903" clip-path="url(#SVGID_28_)" fill-rule="evenodd" clip-rule="evenodd" fill="#FF7903" width="80.873" height="16.634"/>
	</g>
	<g>
		<defs>
			<path id="SVGID_29_" d="M137.887,25.903c-1.835,0-3.323,1.489-3.323,3.317c0,1.832,1.48,3.317,3.323,3.317h64.226
				c1.835,0,3.323-1.489,3.323-3.317c0-1.832-1.48-3.317-3.323-3.317H137.887z"/>
		</defs>
		<clipPath id="SVGID_30_">
			<use xlink:href="#SVGID_29_"  overflow="visible"/>
		</clipPath>
	</g>
</g>
<g>
	<g>
		<defs>
			<ellipse id="SVGID_31_" cx="170.554" cy="598.113" rx="16.057" ry="16.033"/>
		</defs>
		<clipPath id="SVGID_32_">
			<use xlink:href="#SVGID_31_"  overflow="visible"/>
		</clipPath>
	</g>
	<g>
		<defs>
			<ellipse id="SVGID_33_" cx="170.554" cy="598.113" rx="16.057" ry="16.033"/>
		</defs>
		<clipPath id="SVGID_34_">
			<use xlink:href="#SVGID_33_"  overflow="visible"/>
		</clipPath>
		<path clip-path="url(#SVGID_34_)" fill="#FF7903" d="M170.554,617.146c-10.508,0-19.057-8.538-19.057-19.033
			c0-10.494,8.549-19.032,19.057-19.032c10.508,0,19.057,8.538,19.057,19.032C189.61,608.607,181.062,617.146,170.554,617.146z
			 M170.554,585.08c-7.2,0-13.057,5.847-13.057,13.032c0,7.187,5.857,13.033,13.057,13.033c7.199,0,13.057-5.847,13.057-13.033
			C183.61,590.927,177.753,585.08,170.554,585.08z"/>
	</g>
	<g>
		<defs>
			<ellipse id="SVGID_35_" cx="170.554" cy="598.113" rx="16.057" ry="16.033"/>
		</defs>
		<clipPath id="SVGID_36_">
			<use xlink:href="#SVGID_35_"  overflow="visible"/>
		</clipPath>
	</g>
</g>
<g>
	<g>
		<defs>
			<ellipse id="SVGID_37_" cx="245.302" cy="29.22" rx="6.645" ry="6.634"/>
		</defs>
		<clipPath id="SVGID_38_">
			<use xlink:href="#SVGID_37_"  overflow="visible"/>
		</clipPath>
	</g>
	<g>
		<defs>
			<ellipse id="SVGID_39_" cx="245.302" cy="29.22" rx="6.645" ry="6.634"/>
		</defs>
		<clipPath id="SVGID_40_">
			<use xlink:href="#SVGID_39_"  overflow="visible"/>
		</clipPath>
		
			<rect x="233.657" y="17.586" clip-path="url(#SVGID_40_)" fill-rule="evenodd" clip-rule="evenodd" fill="#4A4A4A" width="23.289" height="23.269"/>
	</g>
	<g>
		<defs>
			<ellipse id="SVGID_41_" cx="245.302" cy="29.22" rx="6.645" ry="6.634"/>
		</defs>
		<clipPath id="SVGID_42_">
			<use xlink:href="#SVGID_41_"  overflow="visible"/>
		</clipPath>
	</g>
</g>
<g>
	<g>
		<defs>
			<ellipse id="SVGID_43_" cx="245.302" cy="29.22" rx="4.43" ry="4.423"/>
		</defs>
		<clipPath id="SVGID_44_">
			<use xlink:href="#SVGID_43_"  overflow="visible"/>
		</clipPath>
	</g>
	<g>
		<defs>
			<ellipse id="SVGID_45_" cx="245.302" cy="29.22" rx="4.43" ry="4.423"/>
		</defs>
		<clipPath id="SVGID_46_">
			<use xlink:href="#SVGID_45_"  overflow="visible"/>
		</clipPath>
		
			<rect x="235.872" y="19.797" clip-path="url(#SVGID_46_)" fill-rule="evenodd" clip-rule="evenodd" fill="#292729" width="18.859" height="18.846"/>
	</g>
	<g>
		<defs>
			<ellipse id="SVGID_47_" cx="245.302" cy="29.22" rx="4.43" ry="4.423"/>
		</defs>
		<clipPath id="SVGID_48_">
			<use xlink:href="#SVGID_47_"  overflow="visible"/>
		</clipPath>
	</g>
</g>
<g>
	<g>
		<defs>
			<rect id="SVGID_49_" x="19.396" y="49.123" width="301.208" height="17.691"/>
		</defs>
		<clipPath id="SVGID_50_">
			<use xlink:href="#SVGID_49_"  overflow="visible"/>
		</clipPath>
	</g>
	<g>
		<defs>
			<rect id="SVGID_51_" x="19.396" y="49.123" width="301.208" height="17.691"/>
		</defs>
		<clipPath id="SVGID_52_">
			<use xlink:href="#SVGID_51_"  overflow="visible"/>
		</clipPath>
		
			<rect x="14.396" y="44.123" clip-path="url(#SVGID_52_)" fill-rule="evenodd" clip-rule="evenodd" fill="#E4E4E4" width="311.208" height="27.691"/>
	</g>
	<g>
		<defs>
			<rect id="SVGID_53_" x="19.396" y="49.123" width="301.208" height="17.691"/>
		</defs>
		<clipPath id="SVGID_54_">
			<use xlink:href="#SVGID_53_"  overflow="visible"/>
		</clipPath>
	</g>
</g>
<g>
	<g>
		<defs>
			<rect id="SVGID_55_" x="19.396" y="122.101" width="150.009" height="146.327"/>
		</defs>
		<clipPath id="SVGID_56_">
			<use xlink:href="#SVGID_55_"  overflow="visible"/>
		</clipPath>
	</g>
	<g>
		<defs>
			<rect id="SVGID_57_" x="19.396" y="122.101" width="150.009" height="146.327"/>
		</defs>
		<clipPath id="SVGID_58_">
			<use xlink:href="#SVGID_57_"  overflow="visible"/>
		</clipPath>
		
			<rect x="14.396" y="117.101" clip-path="url(#SVGID_58_)" fill-rule="evenodd" clip-rule="evenodd" fill="#27B2D4" width="160.008" height="156.327"/>
	</g>
	<g>
		<defs>
			<rect id="SVGID_59_" x="19.396" y="122.101" width="150.009" height="146.327"/>
		</defs>
		<clipPath id="SVGID_60_">
			<use xlink:href="#SVGID_59_"  overflow="visible"/>
		</clipPath>
	</g>
</g>
<g>
	<g>
		<defs>
			<rect id="SVGID_61_" x="170.596" y="122.101" width="150.008" height="146.327"/>
		</defs>
		<clipPath id="SVGID_62_">
			<use xlink:href="#SVGID_61_"  overflow="visible"/>
		</clipPath>
	</g>
	<g>
		<defs>
			<rect id="SVGID_63_" x="170.596" y="122.101" width="150.008" height="146.327"/>
		</defs>
		<clipPath id="SVGID_64_">
			<use xlink:href="#SVGID_63_"  overflow="visible"/>
		</clipPath>
		
			<rect x="165.595" y="117.101" clip-path="url(#SVGID_64_)" fill-rule="evenodd" clip-rule="evenodd" fill="#ED5C4D" width="160.008" height="156.327"/>
	</g>
	<g>
		<defs>
			<rect id="SVGID_65_" x="170.596" y="122.101" width="150.008" height="146.327"/>
		</defs>
		<clipPath id="SVGID_66_">
			<use xlink:href="#SVGID_65_"  overflow="visible"/>
		</clipPath>
	</g>
</g>
<g>
	<g>
		<defs>
			<rect id="SVGID_67_" x="19.396" y="416.955" width="150.009" height="146.327"/>
		</defs>
		<clipPath id="SVGID_68_">
			<use xlink:href="#SVGID_67_"  overflow="visible"/>
		</clipPath>
	</g>
	<g>
		<defs>
			<rect id="SVGID_69_" x="19.396" y="416.955" width="150.009" height="146.327"/>
		</defs>
		<clipPath id="SVGID_70_">
			<use xlink:href="#SVGID_69_"  overflow="visible"/>
		</clipPath>
		
			<rect x="14.396" y="411.955" clip-path="url(#SVGID_70_)" fill-rule="evenodd" clip-rule="evenodd" fill="#ED5C4D" width="160.008" height="156.327"/>
	</g>
	<g>
		<defs>
			<rect id="SVGID_71_" x="19.396" y="416.955" width="150.009" height="146.327"/>
		</defs>
		<clipPath id="SVGID_72_">
			<use xlink:href="#SVGID_71_"  overflow="visible"/>
		</clipPath>
	</g>
</g>
<g>
	<g>
		<defs>
			<rect id="SVGID_73_" x="170.596" y="416.955" width="150.008" height="146.327"/>
		</defs>
		<clipPath id="SVGID_74_">
			<use xlink:href="#SVGID_73_"  overflow="visible"/>
		</clipPath>
	</g>
	<g>
		<defs>
			<rect id="SVGID_75_" x="170.596" y="416.955" width="150.008" height="146.327"/>
		</defs>
		<clipPath id="SVGID_76_">
			<use xlink:href="#SVGID_75_"  overflow="visible"/>
		</clipPath>
		
			<rect x="165.595" y="411.955" clip-path="url(#SVGID_76_)" fill-rule="evenodd" clip-rule="evenodd" fill="#27B2D4" width="160.008" height="156.327"/>
	</g>
	<g>
		<defs>
			<rect id="SVGID_77_" x="170.596" y="416.955" width="150.008" height="146.327"/>
		</defs>
		<clipPath id="SVGID_78_">
			<use xlink:href="#SVGID_77_"  overflow="visible"/>
		</clipPath>
	</g>
</g>
<g>
	<g>
		<defs>
			<rect id="SVGID_79_" x="19.396" y="269.528" width="150.009" height="146.328"/>
		</defs>
		<clipPath id="SVGID_80_">
			<use xlink:href="#SVGID_79_"  overflow="visible"/>
		</clipPath>
	</g>
	<g>
		<defs>
			<rect id="SVGID_81_" x="19.396" y="269.528" width="150.009" height="146.328"/>
		</defs>
		<clipPath id="SVGID_82_">
			<use xlink:href="#SVGID_81_"  overflow="visible"/>
		</clipPath>
		
			<rect x="14.396" y="264.528" clip-path="url(#SVGID_82_)" fill-rule="evenodd" clip-rule="evenodd" fill="#2D85C2" width="160.008" height="156.328"/>
	</g>
	<g>
		<defs>
			<rect id="SVGID_83_" x="19.396" y="269.528" width="150.009" height="146.328"/>
		</defs>
		<clipPath id="SVGID_84_">
			<use xlink:href="#SVGID_83_"  overflow="visible"/>
		</clipPath>
	</g>
</g>
<g>
	<g>
		<defs>
			<rect id="SVGID_85_" x="170.596" y="269.528" width="150.008" height="146.328"/>
		</defs>
		<clipPath id="SVGID_86_">
			<use xlink:href="#SVGID_85_"  overflow="visible"/>
		</clipPath>
	</g>
	<g>
		<defs>
			<rect id="SVGID_87_" x="170.596" y="269.528" width="150.008" height="146.328"/>
		</defs>
		<clipPath id="SVGID_88_">
			<use xlink:href="#SVGID_87_"  overflow="visible"/>
		</clipPath>
		
			<rect x="165.595" y="264.528" clip-path="url(#SVGID_88_)" fill-rule="evenodd" clip-rule="evenodd" fill="#8A86CF" width="160.008" height="156.328"/>
	</g>
	<g>
		<defs>
			<rect id="SVGID_89_" x="170.596" y="269.528" width="150.008" height="146.328"/>
		</defs>
		<clipPath id="SVGID_90_">
			<use xlink:href="#SVGID_89_"  overflow="visible"/>
		</clipPath>
	</g>
</g>
<g>
	<g>
		<defs>
			<rect id="SVGID_91_" x="89.647" y="14.379" width="159.598" height="90.81"/>
		</defs>
		<clipPath id="SVGID_92_">
			<use xlink:href="#SVGID_91_"  overflow="visible"/>
		</clipPath>
	</g>
	<g>
		<defs>
			<rect id="SVGID_93_" x="89.647" y="14.379" width="159.598" height="90.81"/>
		</defs>
		<clipPath id="SVGID_94_">
			<use xlink:href="#SVGID_93_"  overflow="visible"/>
		</clipPath>
		<g clip-path="url(#SVGID_94_)">
			<path fill="#29BFDC" d="M121.947,96.927l0.873,1.104c-0.766,0.729-1.905,1.371-3.615,1.371c-2.956,0-5.111-2.226-5.111-6.357
				c0-4.131,2.351-6.339,5.093-6.339c1.567,0,2.493,0.427,3.455,1.211l-0.926,1.086c-0.748-0.623-1.549-0.908-2.422-0.908
				c-1.816,0-3.401,1.265-3.401,4.95c0,3.544,1.478,4.933,3.383,4.933C120.558,97.978,121.341,97.461,121.947,96.927z"/>
			<path fill="#29BFDC" d="M124.904,99.188v-9.385h1.424l0.196,1.799c0.534-1.317,1.353-2.012,2.457-2.012
				c0.303,0,0.641,0.035,0.926,0.106l-0.303,1.603c-0.285-0.071-0.481-0.106-0.819-0.106c-1.175,0-1.923,1.192-2.244,2.493v5.502
				H124.904z"/>
			<path fill="#29BFDC" d="M132.598,95.058c0.142,2.083,1.104,3.009,2.528,3.009c0.855,0,1.549-0.214,2.351-0.872l0.748,1.086
				c-0.873,0.694-1.923,1.122-3.134,1.122c-2.795,0-4.238-1.977-4.238-4.897c0-2.831,1.478-4.914,3.971-4.914
				c2.458,0,3.793,1.763,3.793,4.63c0,0.32-0.018,0.623-0.036,0.837H132.598z M132.598,93.847h4.398
				c-0.036-1.941-0.712-2.956-2.172-2.956C133.541,90.891,132.722,91.834,132.598,93.847z"/>
			<path fill="#29BFDC" d="M147.627,97.069c0,0.748,0.214,1.015,0.695,1.193l-0.392,1.14c-0.837-0.107-1.442-0.481-1.727-1.318
				c-0.659,0.891-1.656,1.318-2.796,1.318c-1.887,0-3.045-1.157-3.045-2.902c0-1.941,1.567-3.027,4.416-3.027h1.211v-0.73
				c0-1.317-0.659-1.816-2.03-1.816c-0.624,0-1.496,0.143-2.458,0.481l-0.427-1.211c1.157-0.428,2.208-0.605,3.134-0.605
				c2.386,0,3.419,1.157,3.419,3.062V97.069z M145.989,96.874v-2.315h-1.122c-2.012,0-2.707,0.73-2.707,1.87
				c0,1.157,0.517,1.745,1.692,1.745C144.743,98.174,145.455,97.692,145.989,96.874z"/>
			<path fill="#29BFDC" d="M155.785,98.761c-0.57,0.428-1.318,0.642-2.101,0.642c-1.745,0-2.529-1.104-2.529-2.725v-5.627h-1.496
				v-1.247h1.496v-2.118l1.638-0.196v2.314h2.369l-0.196,1.247h-2.173v5.609c0,0.943,0.303,1.389,1.122,1.389
				c0.41,0,0.783-0.125,1.247-0.409L155.785,98.761z"/>
			<path fill="#29BFDC" d="M158.51,95.058c0.142,2.083,1.104,3.009,2.528,3.009c0.855,0,1.549-0.214,2.351-0.872l0.748,1.086
				c-0.873,0.694-1.923,1.122-3.134,1.122c-2.795,0-4.238-1.977-4.238-4.897c0-2.831,1.478-4.914,3.971-4.914
				c2.458,0,3.793,1.763,3.793,4.63c0,0.32-0.018,0.623-0.036,0.837H158.51z M158.51,93.847h4.398
				c-0.036-1.941-0.712-2.956-2.172-2.956C159.453,90.891,158.634,91.834,158.51,93.847z"/>
			<path fill="#29BFDC" d="M178.26,97.069c0,0.748,0.213,1.015,0.694,1.193l-0.392,1.14c-0.838-0.107-1.443-0.481-1.728-1.318
				c-0.659,0.891-1.656,1.318-2.796,1.318c-1.887,0-3.045-1.157-3.045-2.902c0-1.941,1.566-3.027,4.416-3.027h1.211v-0.73
				c0-1.317-0.658-1.816-2.029-1.816c-0.624,0-1.496,0.143-2.458,0.481l-0.427-1.211c1.156-0.428,2.207-0.605,3.133-0.605
				c2.387,0,3.42,1.157,3.42,3.062V97.069z M176.621,96.874v-2.315H175.5c-2.013,0-2.707,0.73-2.707,1.87
				c0,1.157,0.516,1.745,1.691,1.745C175.375,98.174,176.087,97.692,176.621,96.874z"/>
			<path fill="#29BFDC" d="M183.3,99.188h-1.638v-9.385h1.406l0.125,1.282c0.766-0.961,1.887-1.495,2.991-1.495
				c1.816,0,2.546,1.032,2.546,2.777v6.82h-1.638v-6.713c0-1.122-0.392-1.603-1.46-1.603c-1.016,0-1.834,0.783-2.333,1.513V99.188z"
				/>
			<path fill="#29BFDC" d="M203.192,97.069c0,0.748,0.214,1.015,0.694,1.193l-0.392,1.14c-0.837-0.107-1.442-0.481-1.728-1.318
				c-0.658,0.891-1.656,1.318-2.795,1.318c-1.888,0-3.045-1.157-3.045-2.902c0-1.941,1.566-3.027,4.416-3.027h1.211v-0.73
				c0-1.317-0.659-1.816-2.03-1.816c-0.624,0-1.496,0.143-2.458,0.481l-0.427-1.211c1.157-0.428,2.208-0.605,3.134-0.605
				c2.387,0,3.419,1.157,3.419,3.062V97.069z M201.555,96.874v-2.315h-1.122c-2.013,0-2.707,0.73-2.707,1.87
				c0,1.157,0.517,1.745,1.692,1.745C200.308,98.174,201.02,97.692,201.555,96.874z"/>
			<path fill="#29BFDC" d="M206.595,102.981V89.804h1.407l0.124,1.282c0.694-0.961,1.692-1.495,2.778-1.495
				c2.492,0,3.473,1.94,3.473,4.896c0,2.85-1.265,4.915-3.687,4.915c-1.015,0-1.853-0.339-2.458-1.068v4.451L206.595,102.981z
				 M212.613,94.487c0-2.439-0.712-3.597-2.119-3.597c-0.997,0-1.763,0.712-2.262,1.46v4.576c0.481,0.73,1.211,1.14,2.066,1.14
				C211.795,98.066,212.613,96.944,212.613,94.487z"/>
			<path fill="#29BFDC" d="M217.138,102.981V89.804h1.407l0.124,1.282c0.694-0.961,1.692-1.495,2.778-1.495
				c2.492,0,3.473,1.94,3.473,4.896c0,2.85-1.265,4.915-3.687,4.915c-1.015,0-1.853-0.339-2.458-1.068v4.451L217.138,102.981z
				 M223.156,94.487c0-2.439-0.712-3.597-2.119-3.597c-0.997,0-1.763,0.712-2.262,1.46v4.576c0.481,0.73,1.211,1.14,2.066,1.14
				C222.338,98.066,223.156,96.944,223.156,94.487z"/>
		</g>
	</g>
	<g>
		<defs>
			<rect id="SVGID_95_" x="89.647" y="14.379" width="159.598" height="90.81"/>
		</defs>
		<clipPath id="SVGID_96_">
			<use xlink:href="#SVGID_95_"  overflow="visible"/>
		</clipPath>
	</g>
</g>
<g>
	<g>
		<defs>
			<path id="SVGID_97_" d="M292.003,54c-0.554,0-1.003,0.453-1.003,0.997v6.006c0,0.551,0.439,0.997,1.003,0.997h19.994
				c0.554,0,1.003-0.453,1.003-0.997v-6.006c0-0.551-0.439-0.997-1.003-0.997H292.003z"/>
		</defs>
		<clipPath id="SVGID_98_">
			<use xlink:href="#SVGID_97_"  overflow="visible"/>
		</clipPath>
	</g>
	<g>
		<defs>
			<path id="SVGID_99_" d="M292.003,54c-0.554,0-1.003,0.453-1.003,0.997v6.006c0,0.551,0.439,0.997,1.003,0.997h19.994
				c0.554,0,1.003-0.453,1.003-0.997v-6.006c0-0.551-0.439-0.997-1.003-0.997H292.003z"/>
		</defs>
		<clipPath id="SVGID_100_">
			<use xlink:href="#SVGID_99_"  overflow="visible"/>
		</clipPath>
		<path clip-path="url(#SVGID_100_)" fill="#FFFFFF" d="M311.997,63h-19.995c-1.104,0-2.002-0.896-2.002-1.997v-6.006
			c0-1.101,0.898-1.997,2.002-1.997h19.995c1.104,0,2.003,0.896,2.003,1.997v6.006C314,62.104,313.102,63,311.997,63z M311.997,61v1
			V61C311.997,61,311.997,61,311.997,61z M312,54.997L292.002,55L292,61.003L311.996,61L312,54.997z"/>
	</g>
	<g>
		<defs>
			<path id="SVGID_101_" d="M292.003,54c-0.554,0-1.003,0.453-1.003,0.997v6.006c0,0.551,0.439,0.997,1.003,0.997h19.994
				c0.554,0,1.003-0.453,1.003-0.997v-6.006c0-0.551-0.439-0.997-1.003-0.997H292.003z"/>
		</defs>
		<clipPath id="SVGID_102_">
			<use xlink:href="#SVGID_101_"  overflow="visible"/>
		</clipPath>
	</g>
</g>
<g>
	<g>
		<defs>
			<rect id="SVGID_103_" x="291.88" y="54" width="14.96" height="8"/>
		</defs>
		<clipPath id="SVGID_104_">
			<use xlink:href="#SVGID_103_"  overflow="visible"/>
		</clipPath>
	</g>
	<g>
		<defs>
			<rect id="SVGID_105_" x="291.88" y="54" width="14.96" height="8"/>
		</defs>
		<clipPath id="SVGID_106_">
			<use xlink:href="#SVGID_105_"  overflow="visible"/>
		</clipPath>
		
			<rect x="286.88" y="49" clip-path="url(#SVGID_106_)" fill-rule="evenodd" clip-rule="evenodd" fill="#FFFFFF" width="24.96" height="18"/>
	</g>
	<g>
		<defs>
			<rect id="SVGID_107_" x="291.88" y="54" width="14.96" height="8"/>
		</defs>
		<clipPath id="SVGID_108_">
			<use xlink:href="#SVGID_107_"  overflow="visible"/>
		</clipPath>
	</g>
</g>
<g>
	<g>
		<defs>
			<rect id="SVGID_109_" x="312" y="56" width="2" height="4"/>
		</defs>
		<clipPath id="SVGID_110_">
			<use xlink:href="#SVGID_109_"  overflow="visible"/>
		</clipPath>
	</g>
	<g>
		<defs>
			<rect id="SVGID_111_" x="312" y="56" width="2" height="4"/>
		</defs>
		<clipPath id="SVGID_112_">
			<use xlink:href="#SVGID_111_"  overflow="visible"/>
		</clipPath>
		
			<rect x="307" y="51" clip-path="url(#SVGID_112_)" fill-rule="evenodd" clip-rule="evenodd" fill="#FFFFFF" width="12" height="14"/>
	</g>
	<g>
		<defs>
			<rect id="SVGID_113_" x="312" y="56" width="2" height="4"/>
		</defs>
		<clipPath id="SVGID_114_">
			<use xlink:href="#SVGID_113_"  overflow="visible"/>
		</clipPath>
	</g>
</g>
<g>
	<g>
		<defs>
			<circle id="SVGID_115_" cx="246.5" cy="195.5" r="42.5"/>
		</defs>
		<clipPath id="SVGID_116_">
			<use xlink:href="#SVGID_115_"  overflow="visible"/>
		</clipPath>
	</g>
	<g>
		<defs>
			<circle id="SVGID_117_" cx="246.5" cy="195.5" r="42.5"/>
		</defs>
		<clipPath id="SVGID_118_">
			<use xlink:href="#SVGID_117_"  overflow="visible"/>
		</clipPath>
		
			<rect x="199" y="148" clip-path="url(#SVGID_118_)" fill-rule="evenodd" clip-rule="evenodd" fill="#8A86CF" width="95" height="95"/>
	</g>
	<g>
		<defs>
			<circle id="SVGID_119_" cx="246.5" cy="195.5" r="42.5"/>
		</defs>
		<clipPath id="SVGID_120_">
			<use xlink:href="#SVGID_119_"  overflow="visible"/>
		</clipPath>
	</g>
</g>
<g>
	<g>
		<defs>
			<path id="SVGID_121_" d="M247.116,206.979l0.002-10.993h-0.002h-5.528v-5.497h13.824v16.489h0.001H247.116z M238.824,187.742
				h-1.384c-0.764,0-1.383,0.615-1.383,1.374c0,0.759,0.619,1.374,1.383,1.374h1.384v5.497h-8.295v-13.742h13.823v5.497h-2.765
				v-0.001h-2.764V187.742z M233.294,176.748h2.766v2.749h-2.766V176.748z M270.619,195.987h-12.443v-5.497h1.383
				c0.764,0,1.382-0.615,1.382-1.374c0-0.759-0.618-1.374-1.382-1.374h-12.442v-5.497h1.384c0.765,0,1.384-0.615,1.384-1.374
				c0-0.759-0.619-1.374-1.384-1.374h-9.676V174h-8.295v5.496l-4.146,0.001c-0.764,0-1.383,0.615-1.383,1.374
				c0,0.759,0.619,1.374,1.383,1.374h1.381v13.742h-1.381c-0.764,0-1.383,0.616-1.383,1.375c0,0.758,0.619,1.373,1.383,1.373h1.381
				v16.491h2.765v-16.491h13.823v16.491h2.765v-5.497l11.06-0.002l0.002,0.002v-0.002h2.765v-2.748h-2.765l-0.002-8.245h8.296
				v16.491h2.765v-16.491h1.384c0.762,0,1.38-0.614,1.38-1.373C272,196.603,271.381,195.987,270.619,195.987z"/>
		</defs>
		<clipPath id="SVGID_122_">
			<use xlink:href="#SVGID_121_"  overflow="visible"/>
		</clipPath>
	</g>
	<g>
		<defs>
			<path id="SVGID_123_" d="M247.116,206.979l0.002-10.993h-0.002h-5.528v-5.497h13.824v16.489h0.001H247.116z M238.824,187.742
				h-1.384c-0.764,0-1.383,0.615-1.383,1.374c0,0.759,0.619,1.374,1.383,1.374h1.384v5.497h-8.295v-13.742h13.823v5.497h-2.765
				v-0.001h-2.764V187.742z M233.294,176.748h2.766v2.749h-2.766V176.748z M270.619,195.987h-12.443v-5.497h1.383
				c0.764,0,1.382-0.615,1.382-1.374c0-0.759-0.618-1.374-1.382-1.374h-12.442v-5.497h1.384c0.765,0,1.384-0.615,1.384-1.374
				c0-0.759-0.619-1.374-1.384-1.374h-9.676V174h-8.295v5.496l-4.146,0.001c-0.764,0-1.383,0.615-1.383,1.374
				c0,0.759,0.619,1.374,1.383,1.374h1.381v13.742h-1.381c-0.764,0-1.383,0.616-1.383,1.375c0,0.758,0.619,1.373,1.383,1.373h1.381
				v16.491h2.765v-16.491h13.823v16.491h2.765v-5.497l11.06-0.002l0.002,0.002v-0.002h2.765v-2.748h-2.765l-0.002-8.245h8.296
				v16.491h2.765v-16.491h1.384c0.762,0,1.38-0.614,1.38-1.373C272,196.603,271.381,195.987,270.619,195.987z"/>
		</defs>
		<clipPath id="SVGID_124_">
			<use xlink:href="#SVGID_123_"  overflow="visible"/>
		</clipPath>
		
			<rect x="220" y="169" clip-path="url(#SVGID_124_)" fill-rule="evenodd" clip-rule="evenodd" fill="#FFFFFF" width="57" height="51.226"/>
	</g>
	<g>
		<defs>
			<path id="SVGID_125_" d="M247.116,206.979l0.002-10.993h-0.002h-5.528v-5.497h13.824v16.489h0.001H247.116z M238.824,187.742
				h-1.384c-0.764,0-1.383,0.615-1.383,1.374c0,0.759,0.619,1.374,1.383,1.374h1.384v5.497h-8.295v-13.742h13.823v5.497h-2.765
				v-0.001h-2.764V187.742z M233.294,176.748h2.766v2.749h-2.766V176.748z M270.619,195.987h-12.443v-5.497h1.383
				c0.764,0,1.382-0.615,1.382-1.374c0-0.759-0.618-1.374-1.382-1.374h-12.442v-5.497h1.384c0.765,0,1.384-0.615,1.384-1.374
				c0-0.759-0.619-1.374-1.384-1.374h-9.676V174h-8.295v5.496l-4.146,0.001c-0.764,0-1.383,0.615-1.383,1.374
				c0,0.759,0.619,1.374,1.383,1.374h1.381v13.742h-1.381c-0.764,0-1.383,0.616-1.383,1.375c0,0.758,0.619,1.373,1.383,1.373h1.381
				v16.491h2.765v-16.491h13.823v16.491h2.765v-5.497l11.06-0.002l0.002,0.002v-0.002h2.765v-2.748h-2.765l-0.002-8.245h8.296
				v16.491h2.765v-16.491h1.384c0.762,0,1.38-0.614,1.38-1.373C272,196.603,271.381,195.987,270.619,195.987z"/>
		</defs>
		<clipPath id="SVGID_126_">
			<use xlink:href="#SVGID_125_"  overflow="visible"/>
		</clipPath>
	</g>
</g>
<g>
	<g>
		<defs>
			<circle id="SVGID_127_" cx="93.5" cy="342.5" r="42.5"/>
		</defs>
		<clipPath id="SVGID_128_">
			<use xlink:href="#SVGID_127_"  overflow="visible"/>
		</clipPath>
	</g>
	<g>
		<defs>
			<circle id="SVGID_129_" cx="93.5" cy="342.5" r="42.5"/>
		</defs>
		<clipPath id="SVGID_130_">
			<use xlink:href="#SVGID_129_"  overflow="visible"/>
		</clipPath>
		
			<rect x="46" y="295" clip-path="url(#SVGID_130_)" fill-rule="evenodd" clip-rule="evenodd" fill="#27B2D4" width="95" height="95"/>
	</g>
	<g>
		<defs>
			<circle id="SVGID_131_" cx="93.5" cy="342.5" r="42.5"/>
		</defs>
		<clipPath id="SVGID_132_">
			<use xlink:href="#SVGID_131_"  overflow="visible"/>
		</clipPath>
	</g>
</g>
<g>
	<g>
		<defs>
			<path id="SVGID_133_" d="M99.752,347.345c0,0,0.853-6.277,7.416-3.697C107.168,343.647,106.316,351.215,99.752,347.345z
				 M90.738,361.603c3.585-0.51,3.31-3.105,3.31-3.105c0.066,2.993,3.393,3.48,3.393,3.48
				C93.229,361.302,90.738,361.603,90.738,361.603z M94.28,354.926c3.025-0.403,2.716,1.072,2.716,1.072
				c-1.475-0.731-1.891,0.121-1.891,0.121c0.08,1.312-0.322,1.719-0.818,1.719c-0.506,0-0.993-0.542-0.845-1.719
				c0,0-0.357-0.869-1.874-0.219C91.569,355.9,91.485,354.375,94.28,354.926z M80.797,343.376c6.563-2.58,7.416,3.697,7.416,3.697
				C81.649,350.942,80.797,343.376,80.797,343.376z M115.039,321.035c-4.591-0.619-13.279,7.21-14.313,7.891
				c-1.668-0.757-3.425-1.221-5.258-1.198h-1.995c-1.833-0.023-3.59,0.44-5.258,1.198c-1.105-0.728-10.255-8.015-14.846-7.396
				c-2.558,0.344,0.849,14.776,2.31,17.814c-2.785,4.086-2.868,11.217,2.62,16.676c6.223,6.193,15.855,8.429,15.855,8.429h0.631
				c0,0,9.633-2.235,15.855-8.429c5.489-5.459,5.405-12.589,2.621-16.676C114.723,336.306,117.597,321.379,115.039,321.035z"/>
		</defs>
		<clipPath id="SVGID_134_">
			<use xlink:href="#SVGID_133_"  overflow="visible"/>
		</clipPath>
	</g>
	<g>
		<defs>
			<path id="SVGID_135_" d="M99.752,347.345c0,0,0.853-6.277,7.416-3.697C107.168,343.647,106.316,351.215,99.752,347.345z
				 M90.738,361.603c3.585-0.51,3.31-3.105,3.31-3.105c0.066,2.993,3.393,3.48,3.393,3.48
				C93.229,361.302,90.738,361.603,90.738,361.603z M94.28,354.926c3.025-0.403,2.716,1.072,2.716,1.072
				c-1.475-0.731-1.891,0.121-1.891,0.121c0.08,1.312-0.322,1.719-0.818,1.719c-0.506,0-0.993-0.542-0.845-1.719
				c0,0-0.357-0.869-1.874-0.219C91.569,355.9,91.485,354.375,94.28,354.926z M80.797,343.376c6.563-2.58,7.416,3.697,7.416,3.697
				C81.649,350.942,80.797,343.376,80.797,343.376z M115.039,321.035c-4.591-0.619-13.279,7.21-14.313,7.891
				c-1.668-0.757-3.425-1.221-5.258-1.198h-1.995c-1.833-0.023-3.59,0.44-5.258,1.198c-1.105-0.728-10.255-8.015-14.846-7.396
				c-2.558,0.344,0.849,14.776,2.31,17.814c-2.785,4.086-2.868,11.217,2.62,16.676c6.223,6.193,15.855,8.429,15.855,8.429h0.631
				c0,0,9.633-2.235,15.855-8.429c5.489-5.459,5.405-12.589,2.621-16.676C114.723,336.306,117.597,321.379,115.039,321.035z"/>
		</defs>
		<clipPath id="SVGID_136_">
			<use xlink:href="#SVGID_135_"  overflow="visible"/>
		</clipPath>
		
			<rect x="67.445" y="316" clip-path="url(#SVGID_136_)" fill-rule="evenodd" clip-rule="evenodd" fill="#FFFFFF" width="53.616" height="53.448"/>
	</g>
	<g>
		<defs>
			<path id="SVGID_137_" d="M99.752,347.345c0,0,0.853-6.277,7.416-3.697C107.168,343.647,106.316,351.215,99.752,347.345z
				 M90.738,361.603c3.585-0.51,3.31-3.105,3.31-3.105c0.066,2.993,3.393,3.48,3.393,3.48
				C93.229,361.302,90.738,361.603,90.738,361.603z M94.28,354.926c3.025-0.403,2.716,1.072,2.716,1.072
				c-1.475-0.731-1.891,0.121-1.891,0.121c0.08,1.312-0.322,1.719-0.818,1.719c-0.506,0-0.993-0.542-0.845-1.719
				c0,0-0.357-0.869-1.874-0.219C91.569,355.9,91.485,354.375,94.28,354.926z M80.797,343.376c6.563-2.58,7.416,3.697,7.416,3.697
				C81.649,350.942,80.797,343.376,80.797,343.376z M115.039,321.035c-4.591-0.619-13.279,7.21-14.313,7.891
				c-1.668-0.757-3.425-1.221-5.258-1.198h-1.995c-1.833-0.023-3.59,0.44-5.258,1.198c-1.105-0.728-10.255-8.015-14.846-7.396
				c-2.558,0.344,0.849,14.776,2.31,17.814c-2.785,4.086-2.868,11.217,2.62,16.676c6.223,6.193,15.855,8.429,15.855,8.429h0.631
				c0,0,9.633-2.235,15.855-8.429c5.489-5.459,5.405-12.589,2.621-16.676C114.723,336.306,117.597,321.379,115.039,321.035z"/>
		</defs>
		<clipPath id="SVGID_138_">
			<use xlink:href="#SVGID_137_"  overflow="visible"/>
		</clipPath>
	</g>
</g>
<g>
	<g>
		<defs>
			<circle id="SVGID_139_" cx="248.5" cy="342.5" r="42.5"/>
		</defs>
		<clipPath id="SVGID_140_">
			<use xlink:href="#SVGID_139_"  overflow="visible"/>
		</clipPath>
	</g>
	<g>
		<defs>
			<circle id="SVGID_141_" cx="248.5" cy="342.5" r="42.5"/>
		</defs>
		<clipPath id="SVGID_142_">
			<use xlink:href="#SVGID_141_"  overflow="visible"/>
		</clipPath>
		
			<rect x="201" y="295" clip-path="url(#SVGID_142_)" fill-rule="evenodd" clip-rule="evenodd" fill="#ED5C4D" width="95" height="95"/>
	</g>
	<g>
		<defs>
			<circle id="SVGID_143_" cx="248.5" cy="342.5" r="42.5"/>
		</defs>
		<clipPath id="SVGID_144_">
			<use xlink:href="#SVGID_143_"  overflow="visible"/>
		</clipPath>
	</g>
</g>
<g>
	<g>
		<defs>
			<polygon id="SVGID_145_" points="240,334.5 240,321 257,321 257,334.5 270.5,334.5 270.5,351.5 257,351.5 257,365 240,365 
				240,351.5 226.5,351.5 226.5,334.5 			"/>
		</defs>
		<clipPath id="SVGID_146_">
			<use xlink:href="#SVGID_145_"  overflow="visible"/>
		</clipPath>
	</g>
	<g>
		<defs>
			<polygon id="SVGID_147_" points="240,334.5 240,321 257,321 257,334.5 270.5,334.5 270.5,351.5 257,351.5 257,365 240,365 
				240,351.5 226.5,351.5 226.5,334.5 			"/>
		</defs>
		<clipPath id="SVGID_148_">
			<use xlink:href="#SVGID_147_"  overflow="visible"/>
		</clipPath>
		
			<rect x="221.5" y="316" clip-path="url(#SVGID_148_)" fill-rule="evenodd" clip-rule="evenodd" fill="#FFFFFF" width="54" height="54"/>
	</g>
	<g>
		<defs>
			<polygon id="SVGID_149_" points="240,334.5 240,321 257,321 257,334.5 270.5,334.5 270.5,351.5 257,351.5 257,365 240,365 
				240,351.5 226.5,351.5 226.5,334.5 			"/>
		</defs>
		<clipPath id="SVGID_150_">
			<use xlink:href="#SVGID_149_"  overflow="visible"/>
		</clipPath>
	</g>
</g>
<g>
	<g>
		<defs>
			<circle id="SVGID_151_" cx="94.5" cy="493.5" r="42.5"/>
		</defs>
		<clipPath id="SVGID_152_">
			<use xlink:href="#SVGID_151_"  overflow="visible"/>
		</clipPath>
	</g>
	<g>
		<defs>
			<circle id="SVGID_153_" cx="94.5" cy="493.5" r="42.5"/>
		</defs>
		<clipPath id="SVGID_154_">
			<use xlink:href="#SVGID_153_"  overflow="visible"/>
		</clipPath>
		
			<rect x="47" y="446" clip-path="url(#SVGID_154_)" fill-rule="evenodd" clip-rule="evenodd" fill="#2D85C2" width="95" height="95"/>
	</g>
	<g>
		<defs>
			<circle id="SVGID_155_" cx="94.5" cy="493.5" r="42.5"/>
		</defs>
		<clipPath id="SVGID_156_">
			<use xlink:href="#SVGID_155_"  overflow="visible"/>
		</clipPath>
	</g>
</g>
<g>
	<g>
		<defs>
			
				<rect id="SVGID_157_" x="83.908" y="494.759" transform="matrix(0.5 -0.866 0.866 0.5 -391.5795 324.2732)" width="2.26" height="12.988"/>
		</defs>
		<clipPath id="SVGID_158_">
			<use xlink:href="#SVGID_157_"  overflow="visible"/>
		</clipPath>
	</g>
	<g>
		<defs>
			
				<rect id="SVGID_159_" x="83.908" y="494.759" transform="matrix(0.5 -0.866 0.866 0.5 -391.5795 324.2732)" width="2.26" height="12.988"/>
		</defs>
		<clipPath id="SVGID_160_">
			<use xlink:href="#SVGID_159_"  overflow="visible"/>
		</clipPath>
		
			<rect x="73.544" y="495.123" transform="matrix(-0.866 -0.5 0.5 -0.866 -91.9512 977.8668)" clip-path="url(#SVGID_160_)" fill-rule="evenodd" clip-rule="evenodd" fill="#FFFFFF" width="22.988" height="12.26"/>
	</g>
	<g>
		<defs>
			
				<rect id="SVGID_161_" x="83.908" y="494.759" transform="matrix(0.5 -0.866 0.866 0.5 -391.5795 324.2732)" width="2.26" height="12.988"/>
		</defs>
		<clipPath id="SVGID_162_">
			<use xlink:href="#SVGID_161_"  overflow="visible"/>
		</clipPath>
	</g>
</g>
<g>
	<g>
		<defs>
			<path id="SVGID_163_" d="M101.726,509.314c3.252-3.112,5.309-7.49,5.309-12.373c0-6.021-3.112-11.445-7.954-14.495l5.422-9.532
				l-0.853-0.501l1.341-2.357L101.486,468l-1.341,2.355l-0.899-0.525l-13.333,23.448l1.167,0.685l-1.653,2.906l2.925,1.713
				l1.654-2.903l1.164,0.684l5.606-9.86c3.442,2.223,5.644,6.12,5.644,10.438c0,6.824-5.469,12.374-12.192,12.374H80.4V514h27.656
				v-4.686H101.726z"/>
		</defs>
		<clipPath id="SVGID_164_">
			<use xlink:href="#SVGID_163_"  overflow="visible"/>
		</clipPath>
	</g>
	<g>
		<defs>
			<path id="SVGID_165_" d="M101.726,509.314c3.252-3.112,5.309-7.49,5.309-12.373c0-6.021-3.112-11.445-7.954-14.495l5.422-9.532
				l-0.853-0.501l1.341-2.357L101.486,468l-1.341,2.355l-0.899-0.525l-13.333,23.448l1.167,0.685l-1.653,2.906l2.925,1.713
				l1.654-2.903l1.164,0.684l5.606-9.86c3.442,2.223,5.644,6.12,5.644,10.438c0,6.824-5.469,12.374-12.192,12.374H80.4V514h27.656
				v-4.686H101.726z"/>
		</defs>
		<clipPath id="SVGID_166_">
			<use xlink:href="#SVGID_165_"  overflow="visible"/>
		</clipPath>
		
			<rect x="75.4" y="463" clip-path="url(#SVGID_166_)" fill-rule="evenodd" clip-rule="evenodd" fill="#FFFFFF" width="37.656" height="56"/>
	</g>
	<g>
		<defs>
			<path id="SVGID_167_" d="M101.726,509.314c3.252-3.112,5.309-7.49,5.309-12.373c0-6.021-3.112-11.445-7.954-14.495l5.422-9.532
				l-0.853-0.501l1.341-2.357L101.486,468l-1.341,2.355l-0.899-0.525l-13.333,23.448l1.167,0.685l-1.653,2.906l2.925,1.713
				l1.654-2.903l1.164,0.684l5.606-9.86c3.442,2.223,5.644,6.12,5.644,10.438c0,6.824-5.469,12.374-12.192,12.374H80.4V514h27.656
				v-4.686H101.726z"/>
		</defs>
		<clipPath id="SVGID_168_">
			<use xlink:href="#SVGID_167_"  overflow="visible"/>
		</clipPath>
	</g>
</g>
<g>
	<g>
		<defs>
			<circle id="SVGID_169_" cx="248.5" cy="493.5" r="42.5"/>
		</defs>
		<clipPath id="SVGID_170_">
			<use xlink:href="#SVGID_169_"  overflow="visible"/>
		</clipPath>
	</g>
	<g>
		<defs>
			<circle id="SVGID_171_" cx="248.5" cy="493.5" r="42.5"/>
		</defs>
		<clipPath id="SVGID_172_">
			<use xlink:href="#SVGID_171_"  overflow="visible"/>
		</clipPath>
		
			<rect x="201" y="446" clip-path="url(#SVGID_172_)" fill-rule="evenodd" clip-rule="evenodd" fill="#F8E71C" width="95" height="95"/>
	</g>
	<g>
		<defs>
			<circle id="SVGID_173_" cx="248.5" cy="493.5" r="42.5"/>
		</defs>
		<clipPath id="SVGID_174_">
			<use xlink:href="#SVGID_173_"  overflow="visible"/>
		</clipPath>
	</g>
</g>
<g>
	<g>
		<defs>
			<path id="SVGID_175_" d="M261.138,486.193h-9.337h-4.602h-9.336c-1.925,0-1.283-0.989-1.283-0.989s1.069-6.501,1.64-9.115
				s3.563-2.19,3.563-2.19h5.416h4.602h5.417c0,0,2.993-0.424,3.563,2.19s1.64,9.115,1.64,9.115S263.062,486.193,261.138,486.193z
				 M261.901,491.652c0,0.419-0.342,0.758-0.766,0.758h-3.696c-0.422,0-0.764-0.339-0.764-0.758v-0.759
				c0-0.419,0.342-0.759,0.764-0.759h3.696c0.424,0,0.766,0.34,0.766,0.759V491.652z M249.5,506.73c-1.47,0-2.661-1.181-2.661-2.639
				c0-1.457,1.191-2.638,2.661-2.638s2.661,1.181,2.661,2.638C252.161,505.55,250.97,506.73,249.5,506.73z M242.325,491.652
				c0,0.419-0.343,0.758-0.766,0.758h-3.696c-0.423,0-0.766-0.339-0.766-0.758v-0.759c0-0.419,0.342-0.759,0.766-0.759h3.696
				c0.423,0,0.766,0.34,0.766,0.759V491.652z M262.614,473.403c-0.024-0.024-0.054-0.047-0.081-0.07
				c-0.195-1.372-5.954-2.473-13.035-2.473c-7.089,0-12.853,1.103-13.037,2.478c-0.024,0.022-0.052,0.043-0.075,0.065
				c0,0-3.849,22.611,1.141,34.623c0,0,0.09,1.049,2.103,1.501v2.315c0,1.131,0.926,2.049,2.066,2.049
				c1.142,0,2.067-0.918,2.067-2.049v-2.159c1.477-0.029,2.7-0.028,3.635-0.017v5.248c0,1.151,0.941,2.085,2.103,2.085
				s2.103-0.934,2.103-2.085v-5.248c0.935-0.011,2.158-0.012,3.636,0.017v2.158c0,1.131,0.925,2.049,2.066,2.049
				s2.067-0.918,2.067-2.049v-2.315c2.012-0.451,2.102-1.5,2.102-1.5C266.463,496.015,262.614,473.403,262.614,473.403z"/>
		</defs>
		<clipPath id="SVGID_176_">
			<use xlink:href="#SVGID_175_"  overflow="visible"/>
		</clipPath>
	</g>
	<g>
		<defs>
			<path id="SVGID_177_" d="M261.138,486.193h-9.337h-4.602h-9.336c-1.925,0-1.283-0.989-1.283-0.989s1.069-6.501,1.64-9.115
				s3.563-2.19,3.563-2.19h5.416h4.602h5.417c0,0,2.993-0.424,3.563,2.19s1.64,9.115,1.64,9.115S263.062,486.193,261.138,486.193z
				 M261.901,491.652c0,0.419-0.342,0.758-0.766,0.758h-3.696c-0.422,0-0.764-0.339-0.764-0.758v-0.759
				c0-0.419,0.342-0.759,0.764-0.759h3.696c0.424,0,0.766,0.34,0.766,0.759V491.652z M249.5,506.73c-1.47,0-2.661-1.181-2.661-2.639
				c0-1.457,1.191-2.638,2.661-2.638s2.661,1.181,2.661,2.638C252.161,505.55,250.97,506.73,249.5,506.73z M242.325,491.652
				c0,0.419-0.343,0.758-0.766,0.758h-3.696c-0.423,0-0.766-0.339-0.766-0.758v-0.759c0-0.419,0.342-0.759,0.766-0.759h3.696
				c0.423,0,0.766,0.34,0.766,0.759V491.652z M262.614,473.403c-0.024-0.024-0.054-0.047-0.081-0.07
				c-0.195-1.372-5.954-2.473-13.035-2.473c-7.089,0-12.853,1.103-13.037,2.478c-0.024,0.022-0.052,0.043-0.075,0.065
				c0,0-3.849,22.611,1.141,34.623c0,0,0.09,1.049,2.103,1.501v2.315c0,1.131,0.926,2.049,2.066,2.049
				c1.142,0,2.067-0.918,2.067-2.049v-2.159c1.477-0.029,2.7-0.028,3.635-0.017v5.248c0,1.151,0.941,2.085,2.103,2.085
				s2.103-0.934,2.103-2.085v-5.248c0.935-0.011,2.158-0.012,3.636,0.017v2.158c0,1.131,0.925,2.049,2.066,2.049
				s2.067-0.918,2.067-2.049v-2.315c2.012-0.451,2.102-1.5,2.102-1.5C266.463,496.015,262.614,473.403,262.614,473.403z"/>
		</defs>
		<clipPath id="SVGID_178_">
			<use xlink:href="#SVGID_177_"  overflow="visible"/>
		</clipPath>
		
			<rect x="229.969" y="465.86" clip-path="url(#SVGID_178_)" fill-rule="evenodd" clip-rule="evenodd" fill="#4A4A4A" width="39.062" height="56.14"/>
	</g>
	<g>
		<defs>
			<path id="SVGID_179_" d="M261.138,486.193h-9.337h-4.602h-9.336c-1.925,0-1.283-0.989-1.283-0.989s1.069-6.501,1.64-9.115
				s3.563-2.19,3.563-2.19h5.416h4.602h5.417c0,0,2.993-0.424,3.563,2.19s1.64,9.115,1.64,9.115S263.062,486.193,261.138,486.193z
				 M261.901,491.652c0,0.419-0.342,0.758-0.766,0.758h-3.696c-0.422,0-0.764-0.339-0.764-0.758v-0.759
				c0-0.419,0.342-0.759,0.764-0.759h3.696c0.424,0,0.766,0.34,0.766,0.759V491.652z M249.5,506.73c-1.47,0-2.661-1.181-2.661-2.639
				c0-1.457,1.191-2.638,2.661-2.638s2.661,1.181,2.661,2.638C252.161,505.55,250.97,506.73,249.5,506.73z M242.325,491.652
				c0,0.419-0.343,0.758-0.766,0.758h-3.696c-0.423,0-0.766-0.339-0.766-0.758v-0.759c0-0.419,0.342-0.759,0.766-0.759h3.696
				c0.423,0,0.766,0.34,0.766,0.759V491.652z M262.614,473.403c-0.024-0.024-0.054-0.047-0.081-0.07
				c-0.195-1.372-5.954-2.473-13.035-2.473c-7.089,0-12.853,1.103-13.037,2.478c-0.024,0.022-0.052,0.043-0.075,0.065
				c0,0-3.849,22.611,1.141,34.623c0,0,0.09,1.049,2.103,1.501v2.315c0,1.131,0.926,2.049,2.066,2.049
				c1.142,0,2.067-0.918,2.067-2.049v-2.159c1.477-0.029,2.7-0.028,3.635-0.017v5.248c0,1.151,0.941,2.085,2.103,2.085
				s2.103-0.934,2.103-2.085v-5.248c0.935-0.011,2.158-0.012,3.636,0.017v2.158c0,1.131,0.925,2.049,2.066,2.049
				s2.067-0.918,2.067-2.049v-2.315c2.012-0.451,2.102-1.5,2.102-1.5C266.463,496.015,262.614,473.403,262.614,473.403z"/>
		</defs>
		<clipPath id="SVGID_180_">
			<use xlink:href="#SVGID_179_"  overflow="visible"/>
		</clipPath>
	</g>
</g>
<g opacity="0.3841">
	<path fill="#FFFFFF" d="M107.863,227h-5c-1.104,0-2-0.896-2-2s0.896-2,2-2h5c1.104,0,2,0.896,2,2S108.968,227,107.863,227z
		 M92.863,227h-5c-1.104,0-2-0.896-2-2s0.896-2,2-2h5c1.104,0,2,0.896,2,2S93.968,227,92.863,227z M77.863,227h-5
		c-1.104,0-2-0.896-2-2s0.896-2,2-2h5c1.104,0,2,0.896,2,2S78.968,227,77.863,227z M117.859,226.955
		c-1.009,0-1.876-0.761-1.986-1.788c-0.117-1.098,0.678-2.083,1.776-2.201c1.255-0.134,2.418-0.655,3.363-1.505
		c0.82-0.74,2.085-0.673,2.825,0.148c0.739,0.821,0.673,2.085-0.148,2.825c-1.575,1.418-3.516,2.286-5.615,2.51
		C118.002,226.951,117.93,226.955,117.859,226.955z M63.776,224.024c-0.583,0-1.161-0.253-1.557-0.742
		c-1.331-1.646-2.094-3.632-2.206-5.742c-0.059-1.103,0.788-2.045,1.891-2.103c1.115-0.054,2.045,0.789,2.103,1.891
		c0.067,1.263,0.524,2.452,1.322,3.438c0.694,0.859,0.562,2.118-0.297,2.813C64.663,223.878,64.218,224.024,63.776,224.024z
		 M125,215.708c-1.104,0-2-0.896-2-2v-5c0-1.104,0.896-2,2-2s2,0.896,2,2v5C127,214.812,126.104,215.708,125,215.708z M62,209.434
		c-1.104,0-2-0.896-2-2v-5c0-1.104,0.896-2,2-2s2,0.896,2,2v5C64,208.539,63.104,209.434,62,209.434z M125,200.708
		c-1.104,0-2-0.896-2-2v-5c0-1.104,0.896-2,2-2s2,0.896,2,2v5C127,199.812,126.104,200.708,125,200.708z M62,194.434
		c-1.104,0-2-0.896-2-2v-5c0-1.104,0.896-2,2-2s2,0.896,2,2v5C64,193.539,63.104,194.434,62,194.434z M125,185.708
		c-1.104,0-2-0.896-2-2v-5c0-1.104,0.896-2,2-2s2,0.896,2,2v5C127,184.812,126.104,185.708,125,185.708z M62,179.434
		c-1.104,0-2-0.896-2-2v-5c0-1.104,0.896-2,2-2s2,0.896,2,2v5C64,178.539,63.104,179.434,62,179.434z M124.895,170.714
		c-0.964,0-1.813-0.699-1.972-1.682c-0.201-1.246-0.783-2.378-1.684-3.277c-0.782-0.78-0.784-2.046-0.003-2.829
		s2.046-0.783,2.829-0.003c1.5,1.497,2.472,3.389,2.808,5.471c0.176,1.09-0.565,2.117-1.656,2.293
		C125.108,170.705,125.001,170.714,124.895,170.714z M65.318,165.514c-0.62,0-1.23-0.287-1.622-0.828
		c-0.647-0.895-0.447-2.145,0.448-2.792c1.711-1.239,3.734-1.894,5.851-1.894c1.104,0,2,0.896,2,2s-0.896,2-2,2
		c-1.269,0-2.48,0.392-3.506,1.134C66.135,165.39,65.725,165.514,65.318,165.514z M113.279,164h-5c-1.104,0-2-0.896-2-2s0.896-2,2-2
		h5c1.104,0,2,0.896,2,2S114.383,164,113.279,164z M98.279,164h-5c-1.104,0-2-0.896-2-2s0.896-2,2-2h5c1.104,0,2,0.896,2,2
		S99.383,164,98.279,164z M83.279,164h-5c-1.104,0-2-0.896-2-2s0.896-2,2-2h5c1.104,0,2,0.896,2,2S84.383,164,83.279,164z"/>
</g>
</svg>
