<?xml version="1.0" encoding="utf-8"?>
<!-- Generator: Adobe Illustrator 16.0.4, SVG Export Plug-In . SVG Version: 6.00 Build 0)  -->
<!DOCTYPE svg PUBLIC "-//W3C//DTD SVG 1.1//EN" "http://www.w3.org/Graphics/SVG/1.1/DTD/svg11.dtd">
<svg version="1.1" id="Layer_1" xmlns="http://www.w3.org/2000/svg" xmlns:xlink="http://www.w3.org/1999/xlink" x="0px" y="0px"
	 width="85px" height="85px" viewBox="0 0 85 85" enable-background="new 0 0 85 85" xml:space="preserve">
<g>
	<g>
		<g>
			<defs>
				<circle id="SVGID_1_" cx="42.5" cy="42.5" r="42.5"/>
			</defs>
			<clipPath id="SVGID_2_">
				<use xlink:href="#SVGID_1_"  overflow="visible"/>
			</clipPath>
		</g>
		<g>
			<defs>
				<circle id="SVGID_3_" cx="42.5" cy="42.5" r="42.5"/>
			</defs>
			<clipPath id="SVGID_4_">
				<use xlink:href="#SVGID_3_"  overflow="visible"/>
			</clipPath>
			
				<rect x="-5" y="-5" clip-path="url(#SVGID_4_)" fill-rule="evenodd" clip-rule="evenodd" fill="#27B2D4" width="95" height="95"/>
		</g>
		<g>
			<defs>
				<circle id="SVGID_5_" cx="42.5" cy="42.5" r="42.5"/>
			</defs>
			<clipPath id="SVGID_6_">
				<use xlink:href="#SVGID_5_"  overflow="visible"/>
			</clipPath>
		</g>
	</g>
	<g>
		<g>
			<defs>
				<path id="SVGID_7_" d="M48.752,47.344c0,0,0.853-6.276,7.416-3.697C56.168,43.646,55.316,51.215,48.752,47.344z M39.738,61.602
					c3.584-0.51,3.309-3.105,3.309-3.105c0.066,2.994,3.393,3.48,3.393,3.48C42.229,61.301,39.738,61.602,39.738,61.602z
					 M43.28,54.926c3.024-0.404,2.716,1.072,2.716,1.072c-1.475-0.732-1.891,0.121-1.891,0.121c0.08,1.312-0.322,1.719-0.818,1.719
					c-0.506,0-0.992-0.543-0.844-1.719c0,0-0.357-0.869-1.875-0.219C40.568,55.9,40.484,54.375,43.28,54.926z M29.797,43.375
					c6.563-2.579,7.416,3.697,7.416,3.697C30.648,50.941,29.797,43.375,29.797,43.375z M64.039,21.035
					c-4.592-0.619-13.279,7.21-14.313,7.891c-1.668-0.757-3.425-1.221-5.258-1.198h-1.995c-1.832-0.023-3.59,0.44-5.258,1.198
					c-1.105-0.728-10.255-8.015-14.846-7.396c-2.558,0.344,0.85,14.776,2.311,17.814c-2.785,4.086-2.868,11.217,2.619,16.676
					c6.223,6.193,15.855,8.428,15.855,8.428h0.631c0,0,9.633-2.234,15.855-8.428c5.489-5.459,5.405-12.59,2.621-16.676
					C63.723,36.306,66.598,21.379,64.039,21.035z"/>
			</defs>
			<clipPath id="SVGID_8_">
				<use xlink:href="#SVGID_7_"  overflow="visible"/>
			</clipPath>
		</g>
		<g>
			<defs>
				<path id="SVGID_9_" d="M48.752,47.344c0,0,0.853-6.276,7.416-3.697C56.168,43.646,55.316,51.215,48.752,47.344z M39.738,61.602
					c3.584-0.51,3.309-3.105,3.309-3.105c0.066,2.994,3.393,3.48,3.393,3.48C42.229,61.301,39.738,61.602,39.738,61.602z
					 M43.28,54.926c3.024-0.404,2.716,1.072,2.716,1.072c-1.475-0.732-1.891,0.121-1.891,0.121c0.08,1.312-0.322,1.719-0.818,1.719
					c-0.506,0-0.992-0.543-0.844-1.719c0,0-0.357-0.869-1.875-0.219C40.568,55.9,40.484,54.375,43.28,54.926z M29.797,43.375
					c6.563-2.579,7.416,3.697,7.416,3.697C30.648,50.941,29.797,43.375,29.797,43.375z M64.039,21.035
					c-4.592-0.619-13.279,7.21-14.313,7.891c-1.668-0.757-3.425-1.221-5.258-1.198h-1.995c-1.832-0.023-3.59,0.44-5.258,1.198
					c-1.105-0.728-10.255-8.015-14.846-7.396c-2.558,0.344,0.85,14.776,2.311,17.814c-2.785,4.086-2.868,11.217,2.619,16.676
					c6.223,6.193,15.855,8.428,15.855,8.428h0.631c0,0,9.633-2.234,15.855-8.428c5.489-5.459,5.405-12.59,2.621-16.676
					C63.723,36.306,66.598,21.379,64.039,21.035z"/>
			</defs>
			<clipPath id="SVGID_10_">
				<use xlink:href="#SVGID_9_"  overflow="visible"/>
			</clipPath>
			
				<rect x="16.445" y="16" clip-path="url(#SVGID_10_)" fill-rule="evenodd" clip-rule="evenodd" fill="#FFFFFF" width="53.615" height="53.447"/>
		</g>
		<g>
			<defs>
				<path id="SVGID_11_" d="M48.752,47.344c0,0,0.853-6.276,7.416-3.697C56.168,43.646,55.316,51.215,48.752,47.344z M39.738,61.602
					c3.584-0.51,3.309-3.105,3.309-3.105c0.066,2.994,3.393,3.48,3.393,3.48C42.229,61.301,39.738,61.602,39.738,61.602z
					 M43.28,54.926c3.024-0.404,2.716,1.072,2.716,1.072c-1.475-0.732-1.891,0.121-1.891,0.121c0.08,1.312-0.322,1.719-0.818,1.719
					c-0.506,0-0.992-0.543-0.844-1.719c0,0-0.357-0.869-1.875-0.219C40.568,55.9,40.484,54.375,43.28,54.926z M29.797,43.375
					c6.563-2.579,7.416,3.697,7.416,3.697C30.648,50.941,29.797,43.375,29.797,43.375z M64.039,21.035
					c-4.592-0.619-13.279,7.21-14.313,7.891c-1.668-0.757-3.425-1.221-5.258-1.198h-1.995c-1.832-0.023-3.59,0.44-5.258,1.198
					c-1.105-0.728-10.255-8.015-14.846-7.396c-2.558,0.344,0.85,14.776,2.311,17.814c-2.785,4.086-2.868,11.217,2.619,16.676
					c6.223,6.193,15.855,8.428,15.855,8.428h0.631c0,0,9.633-2.234,15.855-8.428c5.489-5.459,5.405-12.59,2.621-16.676
					C63.723,36.306,66.598,21.379,64.039,21.035z"/>
			</defs>
			<clipPath id="SVGID_12_">
				<use xlink:href="#SVGID_11_"  overflow="visible"/>
			</clipPath>
		</g>
	</g>
</g>
</svg>
