<?xml version="1.0" encoding="utf-8"?>
<!-- Generator: Adobe Illustrator 16.0.4, SVG Export Plug-In . SVG Version: 6.00 Build 0)  -->
<!DOCTYPE svg PUBLIC "-//W3C//DTD SVG 1.1//EN" "http://www.w3.org/Graphics/SVG/1.1/DTD/svg11.dtd">
<svg version="1.1" id="Layer_1" xmlns="http://www.w3.org/2000/svg" xmlns:xlink="http://www.w3.org/1999/xlink" x="0px" y="0px"
	 width="85px" height="85px" viewBox="0 0 85 85" enable-background="new 0 0 85 85" xml:space="preserve">
<g>
	<g>
		<g>
			<defs>
				<circle id="SVGID_1_" cx="42.5" cy="42.5" r="42.5"/>
			</defs>
			<clipPath id="SVGID_2_">
				<use xlink:href="#SVGID_1_"  overflow="visible"/>
			</clipPath>
		</g>
		<g>
			<defs>
				<circle id="SVGID_3_" cx="42.5" cy="42.5" r="42.5"/>
			</defs>
			<clipPath id="SVGID_4_">
				<use xlink:href="#SVGID_3_"  overflow="visible"/>
			</clipPath>
			
				<rect x="-5" y="-5" clip-path="url(#SVGID_4_)" fill-rule="evenodd" clip-rule="evenodd" fill="#8A86CF" width="95" height="95"/>
		</g>
		<g>
			<defs>
				<circle id="SVGID_5_" cx="42.5" cy="42.5" r="42.5"/>
			</defs>
			<clipPath id="SVGID_6_">
				<use xlink:href="#SVGID_5_"  overflow="visible"/>
			</clipPath>
		</g>
	</g>
	<g>
		<g>
			<defs>
				<path id="SVGID_7_" d="M43.116,53.979l0.002-10.992h-0.002h-5.528V37.49h13.824v16.489h0.001H43.116z M34.824,34.742H33.44
					c-0.764,0-1.383,0.615-1.383,1.374c0,0.759,0.619,1.374,1.383,1.374h1.384v5.497h-8.295V29.245h13.823v5.497h-2.765V34.74
					h-2.764V34.742z M29.294,23.748h2.766v2.749h-2.766V23.748z M66.619,42.987H54.176V37.49h1.383c0.764,0,1.382-0.615,1.382-1.374
					c0-0.759-0.618-1.374-1.382-1.374H43.116v-5.497H44.5c0.765,0,1.384-0.615,1.384-1.374c0-0.759-0.619-1.374-1.384-1.374h-9.676
					V21h-8.295v5.496l-4.146,0.001c-0.764,0-1.383,0.615-1.383,1.374c0,0.759,0.619,1.374,1.383,1.374h1.381v13.742h-1.381
					c-0.764,0-1.383,0.615-1.383,1.375s0.619,1.373,1.383,1.373h1.381v16.49h2.765v-16.49h13.823v16.49h2.765v-5.496l11.06-0.002
					l0.002,0.002v-0.002h2.765v-2.748h-2.765l-0.002-8.244h8.296v16.49h2.765v-16.49h1.384c0.762,0,1.38-0.615,1.38-1.373
					C68,43.602,67.381,42.987,66.619,42.987z"/>
			</defs>
			<clipPath id="SVGID_8_">
				<use xlink:href="#SVGID_7_"  overflow="visible"/>
			</clipPath>
		</g>
		<g>
			<defs>
				<path id="SVGID_9_" d="M43.116,53.979l0.002-10.992h-0.002h-5.528V37.49h13.824v16.489h0.001H43.116z M34.824,34.742H33.44
					c-0.764,0-1.383,0.615-1.383,1.374c0,0.759,0.619,1.374,1.383,1.374h1.384v5.497h-8.295V29.245h13.823v5.497h-2.765V34.74
					h-2.764V34.742z M29.294,23.748h2.766v2.749h-2.766V23.748z M66.619,42.987H54.176V37.49h1.383c0.764,0,1.382-0.615,1.382-1.374
					c0-0.759-0.618-1.374-1.382-1.374H43.116v-5.497H44.5c0.765,0,1.384-0.615,1.384-1.374c0-0.759-0.619-1.374-1.384-1.374h-9.676
					V21h-8.295v5.496l-4.146,0.001c-0.764,0-1.383,0.615-1.383,1.374c0,0.759,0.619,1.374,1.383,1.374h1.381v13.742h-1.381
					c-0.764,0-1.383,0.615-1.383,1.375s0.619,1.373,1.383,1.373h1.381v16.49h2.765v-16.49h13.823v16.49h2.765v-5.496l11.06-0.002
					l0.002,0.002v-0.002h2.765v-2.748h-2.765l-0.002-8.244h8.296v16.49h2.765v-16.49h1.384c0.762,0,1.38-0.615,1.38-1.373
					C68,43.602,67.381,42.987,66.619,42.987z"/>
			</defs>
			<clipPath id="SVGID_10_">
				<use xlink:href="#SVGID_9_"  overflow="visible"/>
			</clipPath>
			
				<rect x="16" y="16" clip-path="url(#SVGID_10_)" fill-rule="evenodd" clip-rule="evenodd" fill="#FFFFFF" width="57" height="51.225"/>
		</g>
		<g>
			<defs>
				<path id="SVGID_11_" d="M43.116,53.979l0.002-10.992h-0.002h-5.528V37.49h13.824v16.489h0.001H43.116z M34.824,34.742H33.44
					c-0.764,0-1.383,0.615-1.383,1.374c0,0.759,0.619,1.374,1.383,1.374h1.384v5.497h-8.295V29.245h13.823v5.497h-2.765V34.74
					h-2.764V34.742z M29.294,23.748h2.766v2.749h-2.766V23.748z M66.619,42.987H54.176V37.49h1.383c0.764,0,1.382-0.615,1.382-1.374
					c0-0.759-0.618-1.374-1.382-1.374H43.116v-5.497H44.5c0.765,0,1.384-0.615,1.384-1.374c0-0.759-0.619-1.374-1.384-1.374h-9.676
					V21h-8.295v5.496l-4.146,0.001c-0.764,0-1.383,0.615-1.383,1.374c0,0.759,0.619,1.374,1.383,1.374h1.381v13.742h-1.381
					c-0.764,0-1.383,0.615-1.383,1.375s0.619,1.373,1.383,1.373h1.381v16.49h2.765v-16.49h13.823v16.49h2.765v-5.496l11.06-0.002
					l0.002,0.002v-0.002h2.765v-2.748h-2.765l-0.002-8.244h8.296v16.49h2.765v-16.49h1.384c0.762,0,1.38-0.615,1.38-1.373
					C68,43.602,67.381,42.987,66.619,42.987z"/>
			</defs>
			<clipPath id="SVGID_12_">
				<use xlink:href="#SVGID_11_"  overflow="visible"/>
			</clipPath>
		</g>
	</g>
</g>
</svg>
