<?xml version="1.0" encoding="utf-8"?>
<!-- Generator: Adobe Illustrator 16.0.4, SVG Export Plug-In . SVG Version: 6.00 Build 0)  -->
<!DOCTYPE svg PUBLIC "-//W3C//DTD SVG 1.1//EN" "http://www.w3.org/Graphics/SVG/1.1/DTD/svg11.dtd">
<svg version="1.1" id="Layer_1" xmlns="http://www.w3.org/2000/svg" xmlns:xlink="http://www.w3.org/1999/xlink" x="0px" y="0px"
	 width="85px" height="85px" viewBox="0 0 85 85" enable-background="new 0 0 85 85" xml:space="preserve">
<g>
	<g>
		<g>
			<defs>
				<circle id="SVGID_1_" cx="42.5" cy="42.5" r="42.5"/>
			</defs>
			<clipPath id="SVGID_2_">
				<use xlink:href="#SVGID_1_"  overflow="visible"/>
			</clipPath>
		</g>
		<g>
			<defs>
				<circle id="SVGID_3_" cx="42.5" cy="42.5" r="42.5"/>
			</defs>
			<clipPath id="SVGID_4_">
				<use xlink:href="#SVGID_3_"  overflow="visible"/>
			</clipPath>
			
				<rect x="-5" y="-5" clip-path="url(#SVGID_4_)" fill-rule="evenodd" clip-rule="evenodd" fill="#2D85C2" width="95" height="95"/>
		</g>
		<g>
			<defs>
				<circle id="SVGID_5_" cx="42.5" cy="42.5" r="42.5"/>
			</defs>
			<clipPath id="SVGID_6_">
				<use xlink:href="#SVGID_5_"  overflow="visible"/>
			</clipPath>
		</g>
	</g>
	<g>
		<g>
			<defs>
				<path id="SVGID_7_" d="M49.727,58.314c3.252-3.113,5.309-7.49,5.309-12.373c0-6.021-3.112-11.445-7.955-14.496l5.423-9.531
					l-0.853-0.502l1.342-2.357L49.486,17l-1.342,2.355l-0.899-0.525L33.912,42.277l1.166,0.686l-1.652,2.906l2.925,1.713
					l1.653-2.904l1.164,0.684l5.606-9.859c3.442,2.223,5.644,6.119,5.644,10.438c0,6.824-5.469,12.375-12.191,12.375H28.4V63h27.656
					v-4.686H49.727z"/>
			</defs>
			<clipPath id="SVGID_8_">
				<use xlink:href="#SVGID_7_"  overflow="visible"/>
			</clipPath>
		</g>
		<g>
			<defs>
				<path id="SVGID_9_" d="M49.727,58.314c3.252-3.113,5.309-7.49,5.309-12.373c0-6.021-3.112-11.445-7.955-14.496l5.423-9.531
					l-0.853-0.502l1.342-2.357L49.486,17l-1.342,2.355l-0.899-0.525L33.912,42.277l1.166,0.686l-1.652,2.906l2.925,1.713
					l1.653-2.904l1.164,0.684l5.606-9.859c3.442,2.223,5.644,6.119,5.644,10.438c0,6.824-5.469,12.375-12.191,12.375H28.4V63h27.656
					v-4.686H49.727z"/>
			</defs>
			<clipPath id="SVGID_10_">
				<use xlink:href="#SVGID_9_"  overflow="visible"/>
			</clipPath>
			
				<rect x="23.4" y="12" clip-path="url(#SVGID_10_)" fill-rule="evenodd" clip-rule="evenodd" fill="#FFFFFF" width="37.656" height="56"/>
		</g>
		<g>
			<defs>
				<path id="SVGID_11_" d="M49.727,58.314c3.252-3.113,5.309-7.49,5.309-12.373c0-6.021-3.112-11.445-7.955-14.496l5.423-9.531
					l-0.853-0.502l1.342-2.357L49.486,17l-1.342,2.355l-0.899-0.525L33.912,42.277l1.166,0.686l-1.652,2.906l2.925,1.713
					l1.653-2.904l1.164,0.684l5.606-9.859c3.442,2.223,5.644,6.119,5.644,10.438c0,6.824-5.469,12.375-12.191,12.375H28.4V63h27.656
					v-4.686H49.727z"/>
			</defs>
			<clipPath id="SVGID_12_">
				<use xlink:href="#SVGID_11_"  overflow="visible"/>
			</clipPath>
		</g>
	</g>
</g>
</svg>
