<?xml version="1.0" encoding="utf-8"?>
<!-- Generator: Adobe Illustrator 16.0.4, SVG Export Plug-In . SVG Version: 6.00 Build 0)  -->
<!DOCTYPE svg PUBLIC "-//W3C//DTD SVG 1.1//EN" "http://www.w3.org/Graphics/SVG/1.1/DTD/svg11.dtd">
<svg version="1.1" id="Layer_1" xmlns="http://www.w3.org/2000/svg" xmlns:xlink="http://www.w3.org/1999/xlink" x="0px" y="0px"
	 width="85px" height="85px" viewBox="0 0 85 85" enable-background="new 0 0 85 85" xml:space="preserve">
<g>
	<g>
		<g>
			<defs>
				<circle id="SVGID_1_" cx="42.5" cy="42.5" r="42.5"/>
			</defs>
			<clipPath id="SVGID_2_">
				<use xlink:href="#SVGID_1_"  overflow="visible"/>
			</clipPath>
		</g>
		<g>
			<defs>
				<circle id="SVGID_3_" cx="42.5" cy="42.5" r="42.5"/>
			</defs>
			<clipPath id="SVGID_4_">
				<use xlink:href="#SVGID_3_"  overflow="visible"/>
			</clipPath>
			
				<rect x="-5" y="-5" clip-path="url(#SVGID_4_)" fill-rule="evenodd" clip-rule="evenodd" fill="#F8E71C" width="95" height="95"/>
		</g>
		<g>
			<defs>
				<circle id="SVGID_5_" cx="42.5" cy="42.5" r="42.5"/>
			</defs>
			<clipPath id="SVGID_6_">
				<use xlink:href="#SVGID_5_"  overflow="visible"/>
			</clipPath>
		</g>
	</g>
	<g>
		<g>
			<defs>
				<path id="SVGID_7_" d="M55.138,35.193h-9.337h-4.602h-9.336c-1.925,0-1.283-0.99-1.283-0.99s1.069-6.5,1.64-9.115
					c0.57-2.613,3.563-2.189,3.563-2.189h5.416h4.602h5.417c0,0,2.993-0.424,3.563,2.189c0.57,2.615,1.64,9.115,1.64,9.115
					S57.062,35.193,55.138,35.193z M55.901,40.652c0,0.418-0.342,0.758-0.766,0.758h-3.696c-0.422,0-0.764-0.34-0.764-0.758v-0.76
					c0-0.418,0.342-0.758,0.764-0.758h3.696c0.424,0,0.766,0.34,0.766,0.758V40.652z M43.5,55.73c-1.47,0-2.661-1.182-2.661-2.639
					s1.191-2.639,2.661-2.639s2.661,1.182,2.661,2.639S44.97,55.73,43.5,55.73z M36.325,40.652c0,0.418-0.343,0.758-0.766,0.758
					h-3.696c-0.423,0-0.766-0.34-0.766-0.758v-0.76c0-0.418,0.342-0.758,0.766-0.758h3.696c0.423,0,0.766,0.34,0.766,0.758V40.652z
					 M56.614,22.402c-0.024-0.023-0.054-0.047-0.081-0.07c-0.195-1.371-5.954-2.473-13.035-2.473
					c-7.089,0-12.853,1.104-13.037,2.479c-0.024,0.021-0.052,0.043-0.075,0.064c0,0-3.849,22.611,1.141,34.623
					c0,0,0.09,1.049,2.103,1.502v2.314c0,1.131,0.926,2.049,2.066,2.049c1.142,0,2.067-0.918,2.067-2.049v-2.158
					c1.477-0.029,2.7-0.029,3.635-0.018v5.248c0,1.152,0.941,2.086,2.103,2.086s2.103-0.934,2.103-2.086v-5.248
					c0.935-0.01,2.158-0.012,3.636,0.018v2.158c0,1.131,0.925,2.049,2.066,2.049s2.067-0.918,2.067-2.049v-2.316
					c2.012-0.451,2.102-1.5,2.102-1.5C60.463,45.014,56.614,22.402,56.614,22.402z"/>
			</defs>
			<clipPath id="SVGID_8_">
				<use xlink:href="#SVGID_7_"  overflow="visible"/>
			</clipPath>
		</g>
		<g>
			<defs>
				<path id="SVGID_9_" d="M55.138,35.193h-9.337h-4.602h-9.336c-1.925,0-1.283-0.99-1.283-0.99s1.069-6.5,1.64-9.115
					c0.57-2.613,3.563-2.189,3.563-2.189h5.416h4.602h5.417c0,0,2.993-0.424,3.563,2.189c0.57,2.615,1.64,9.115,1.64,9.115
					S57.062,35.193,55.138,35.193z M55.901,40.652c0,0.418-0.342,0.758-0.766,0.758h-3.696c-0.422,0-0.764-0.34-0.764-0.758v-0.76
					c0-0.418,0.342-0.758,0.764-0.758h3.696c0.424,0,0.766,0.34,0.766,0.758V40.652z M43.5,55.73c-1.47,0-2.661-1.182-2.661-2.639
					s1.191-2.639,2.661-2.639s2.661,1.182,2.661,2.639S44.97,55.73,43.5,55.73z M36.325,40.652c0,0.418-0.343,0.758-0.766,0.758
					h-3.696c-0.423,0-0.766-0.34-0.766-0.758v-0.76c0-0.418,0.342-0.758,0.766-0.758h3.696c0.423,0,0.766,0.34,0.766,0.758V40.652z
					 M56.614,22.402c-0.024-0.023-0.054-0.047-0.081-0.07c-0.195-1.371-5.954-2.473-13.035-2.473
					c-7.089,0-12.853,1.104-13.037,2.479c-0.024,0.021-0.052,0.043-0.075,0.064c0,0-3.849,22.611,1.141,34.623
					c0,0,0.09,1.049,2.103,1.502v2.314c0,1.131,0.926,2.049,2.066,2.049c1.142,0,2.067-0.918,2.067-2.049v-2.158
					c1.477-0.029,2.7-0.029,3.635-0.018v5.248c0,1.152,0.941,2.086,2.103,2.086s2.103-0.934,2.103-2.086v-5.248
					c0.935-0.01,2.158-0.012,3.636,0.018v2.158c0,1.131,0.925,2.049,2.066,2.049s2.067-0.918,2.067-2.049v-2.316
					c2.012-0.451,2.102-1.5,2.102-1.5C60.463,45.014,56.614,22.402,56.614,22.402z"/>
			</defs>
			<clipPath id="SVGID_10_">
				<use xlink:href="#SVGID_9_"  overflow="visible"/>
			</clipPath>
			
				<rect x="23.969" y="14.859" clip-path="url(#SVGID_10_)" fill-rule="evenodd" clip-rule="evenodd" fill="#4A4A4A" width="39.062" height="56.141"/>
		</g>
		<g>
			<defs>
				<path id="SVGID_11_" d="M55.138,35.193h-9.337h-4.602h-9.336c-1.925,0-1.283-0.99-1.283-0.99s1.069-6.5,1.64-9.115
					c0.57-2.613,3.563-2.189,3.563-2.189h5.416h4.602h5.417c0,0,2.993-0.424,3.563,2.189c0.57,2.615,1.64,9.115,1.64,9.115
					S57.062,35.193,55.138,35.193z M55.901,40.652c0,0.418-0.342,0.758-0.766,0.758h-3.696c-0.422,0-0.764-0.34-0.764-0.758v-0.76
					c0-0.418,0.342-0.758,0.764-0.758h3.696c0.424,0,0.766,0.34,0.766,0.758V40.652z M43.5,55.73c-1.47,0-2.661-1.182-2.661-2.639
					s1.191-2.639,2.661-2.639s2.661,1.182,2.661,2.639S44.97,55.73,43.5,55.73z M36.325,40.652c0,0.418-0.343,0.758-0.766,0.758
					h-3.696c-0.423,0-0.766-0.34-0.766-0.758v-0.76c0-0.418,0.342-0.758,0.766-0.758h3.696c0.423,0,0.766,0.34,0.766,0.758V40.652z
					 M56.614,22.402c-0.024-0.023-0.054-0.047-0.081-0.07c-0.195-1.371-5.954-2.473-13.035-2.473
					c-7.089,0-12.853,1.104-13.037,2.479c-0.024,0.021-0.052,0.043-0.075,0.064c0,0-3.849,22.611,1.141,34.623
					c0,0,0.09,1.049,2.103,1.502v2.314c0,1.131,0.926,2.049,2.066,2.049c1.142,0,2.067-0.918,2.067-2.049v-2.158
					c1.477-0.029,2.7-0.029,3.635-0.018v5.248c0,1.152,0.941,2.086,2.103,2.086s2.103-0.934,2.103-2.086v-5.248
					c0.935-0.01,2.158-0.012,3.636,0.018v2.158c0,1.131,0.925,2.049,2.066,2.049s2.067-0.918,2.067-2.049v-2.316
					c2.012-0.451,2.102-1.5,2.102-1.5C60.463,45.014,56.614,22.402,56.614,22.402z"/>
			</defs>
			<clipPath id="SVGID_12_">
				<use xlink:href="#SVGID_11_"  overflow="visible"/>
			</clipPath>
		</g>
	</g>
</g>
</svg>
