<?xml version="1.0" encoding="utf-8"?>
<!-- Generator: Adobe Illustrator 16.0.4, SVG Export Plug-In . SVG Version: 6.00 Build 0)  -->
<!DOCTYPE svg PUBLIC "-//W3C//DTD SVG 1.1//EN" "http://www.w3.org/Graphics/SVG/1.1/DTD/svg11.dtd">
<svg version="1.1" id="Layer_1" xmlns="http://www.w3.org/2000/svg" xmlns:xlink="http://www.w3.org/1999/xlink" x="0px" y="0px"
	 width="85px" height="85px" viewBox="0 0 85 85" enable-background="new 0 0 85 85" xml:space="preserve">
<g opacity="0.3841">
	<path fill="#FFFFFF" d="M57.861,75.334h-5c-1.104,0-2-0.896-2-2c0-1.105,0.896-2,2-2h5c1.105,0,2,0.895,2,2
		C59.861,74.438,58.967,75.334,57.861,75.334z M42.861,75.334h-5c-1.104,0-2-0.896-2-2c0-1.105,0.896-2,2-2h5c1.105,0,2,0.895,2,2
		C44.861,74.438,43.967,75.334,42.861,75.334z M27.862,75.334h-5c-1.104,0-2-0.896-2-2c0-1.105,0.896-2,2-2h5c1.104,0,2,0.895,2,2
		C29.862,74.438,28.966,75.334,27.862,75.334z M67.857,75.289c-1.01,0-1.877-0.762-1.986-1.789
		c-0.117-1.098,0.678-2.082,1.775-2.201c1.256-0.133,2.42-0.654,3.363-1.504c0.82-0.74,2.086-0.674,2.824,0.146
		c0.74,0.822,0.674,2.086-0.146,2.826c-1.576,1.418-3.518,2.285-5.615,2.51C68,75.285,67.928,75.289,67.857,75.289z M13.775,72.357
		c-0.583,0-1.161-0.254-1.557-0.742c-1.331-1.646-2.094-3.631-2.206-5.742c-0.059-1.102,0.789-2.045,1.892-2.102
		c1.115-0.055,2.045,0.789,2.103,1.891c0.067,1.262,0.524,2.451,1.322,3.438c0.694,0.859,0.562,2.119-0.297,2.812
		C14.661,72.213,14.216,72.357,13.775,72.357z M74.998,64.041c-1.104,0-2-0.895-2-2v-5c0-1.104,0.896-2,2-2c1.105,0,2,0.896,2,2v5
		C76.998,63.146,76.104,64.041,74.998,64.041z M11.999,57.768c-1.104,0-2-0.895-2-2v-5c0-1.104,0.896-2,2-2s2,0.896,2,2v5
		C13.999,56.873,13.103,57.768,11.999,57.768z M74.998,49.041c-1.104,0-2-0.895-2-2v-5c0-1.104,0.896-2,2-2c1.105,0,2,0.896,2,2v5
		C76.998,48.146,76.104,49.041,74.998,49.041z M11.999,42.768c-1.104,0-2-0.895-2-2v-5c0-1.104,0.896-2,2-2s2,0.896,2,2v5
		C13.999,41.873,13.103,42.768,11.999,42.768z M74.998,34.042c-1.104,0-2-0.896-2-2v-5c0-1.104,0.896-2,2-2c1.105,0,2,0.896,2,2v5
		C76.998,33.146,76.104,34.042,74.998,34.042z M11.999,27.768c-1.104,0-2-0.896-2-2v-5c0-1.104,0.896-2,2-2s2,0.896,2,2v5
		C13.999,26.873,13.103,27.768,11.999,27.768z M74.893,19.048c-0.963,0-1.812-0.699-1.971-1.682
		c-0.201-1.246-0.783-2.378-1.686-3.277c-0.781-0.78-0.783-2.046-0.002-2.829c0.779-0.782,2.045-0.783,2.828-0.003
		c1.5,1.497,2.471,3.389,2.809,5.471c0.176,1.09-0.566,2.117-1.656,2.293C75.107,19.039,75,19.048,74.893,19.048z M15.317,13.848
		c-0.619,0-1.23-0.287-1.621-0.828c-0.648-0.895-0.447-2.145,0.447-2.792c1.711-1.239,3.734-1.894,5.851-1.894c1.104,0,2,0.896,2,2
		s-0.896,2-2,2c-1.269,0-2.48,0.392-3.506,1.134C16.133,13.724,15.723,13.848,15.317,13.848z M63.277,12.334h-5
		c-1.105,0-2-0.896-2-2s0.895-2,2-2h5c1.104,0,2,0.896,2,2S64.381,12.334,63.277,12.334z M48.277,12.334h-5c-1.105,0-2-0.896-2-2
		s0.894-2,2-2h5c1.104,0,2,0.896,2,2S49.381,12.334,48.277,12.334z M33.278,12.334h-5c-1.105,0-2-0.896-2-2s0.895-2,2-2h5
		c1.104,0,2,0.896,2,2S34.381,12.334,33.278,12.334z"/>
</g>
</svg>
